<?xml version="1.0" encoding="UTF-8"?>
<svg id="Logo" xmlns="http://www.w3.org/2000/svg" viewBox="0 0 956.95 956.95">
<circle fill="#cead00" cx="478.48" cy="478.48" r="478.48"/>
  <circle cx="479.23" cy="478.73" r="463.23" transform="translate(-198.15 479.08) rotate(-45)"/>
  <circle cx="479.39" cy="479.39" r="328.5"/>
  <circle fill="#cead00" cx="477.89" cy="477.89" r="353"/>
  <circle fill="#cead00" cx="861.14" cy="612.14" r="19.75"/>
  <circle fill="#cead00" cx="97.14" cy="612.14" r="19.75"/>
  <circle cx="479.39" cy="478.39" r="342.5"/>
  <circle fill="#cead00" cx="479.73" cy="479.56" r="329.4" transform="translate(-198.59 479.68) rotate(-45)"/>
  <g>
    <path d="M184.39,627.39l129.83-69.67,40.5,10.33,136.33-70.67s13.67,4,21,9.17,22.5,25.33,22.5,25.33l72.83-23.5s17.17,40,8.17,75.33c-8.26,32.44-16.33,41.67-16.33,41.67l117.33,13.17-.33,23,9.83,5.83,24.33,2-28.5,40.75-45.67,40.25-55.33,31-87,28-29.67.83-71.58-1.08c-73.33-18.33-69.92-17.75-76.42-22.75-4.43-3.41-23.58-11.25-23.58-11.25l-2.08-47.92-89.67-20.33-17-11.5-29.75-48-9.75-20Z"/>
    <path fill="#fff" d="M256.55,613.89l60.67-32.67,32.33,8-24.67,14s24.67.33,39,9.33,22.33,20.33,22.33,20.33c0,0,7,12.67,8.67,26.67s-4.33,30-4.33,30c0,0-45,20.33-44.33,19.33.67-1-124.83-28.17-127-29.67-1.08-.75-6.94-8.19-12.33-16.33-5.4-8.15-10.33-17-10.33-17l60-32Z"/>
    <path fill="#fff" d="M352.39,712.39l32.33-13.83s-4.17,7.5-8.33,10.83-11.17,6.67-11.17,6.67l.17,44.17,166.5,28.17,165.83-86.33.67-16.17,32.17,3.83-10.33,11.17-191,99.17-177.33-31,.5-56.67Z"/>
    <polygon fill="#fff" points="369.7 747.57 370.57 756.07 528.26 782.76 528.13 775.7 369.7 747.57"/>
    <polygon fill="#fff" points="369.72 738.33 369.72 743.41 528.51 771.82 528.36 765.83 369.72 738.33"/>
    <polygon fill="#fff" points="369.64 729.04 369.89 734.32 528.45 761.82 528.52 756.56 369.64 729.04"/>
    <polygon fill="#fff" points="369.89 719.89 369.76 724.51 528.51 751.89 528.39 747.2 369.89 719.89"/>
    <polygon fill="#fff" points="533.26 774.89 533.64 782.39 693.64 698.89 693.41 693.91 533.26 774.89"/>
    <polygon fill="#fff" points="533.12 764.9 533.13 769.74 693.39 689.39 693.34 682.31 533.12 764.9"/>
    <polygon fill="#fff" points="533.06 756.66 533.22 760.55 693.41 677.26 693.36 672.03 533.06 756.66"/>
    <polygon fill="#fff" points="533.1 745.82 533.13 751.64 693.39 667.55 693.22 661.45 533.1 745.82"/>
    <polygon fill="#fff" points="382.31 714.61 382.12 716.36 529.64 741.89 690.14 656.89 557.89 640.55 382.31 714.61"/>
    <path fill="#fff" d="M406.64,597.39s18.58,22.17,18.58,50.17-21.08,52.33-21.08,52.33l154.75-64.5s22.08-13.25,32.67-47.5c10.58-34.25,2.5-50.89,2.5-50.89l-187.42,60.39Z"/>
    <path fill="#fff" d="M342.89,599.89l148.67-77.67s7.33.33,16.67,12.33c9.33,12,7.33,21.33,7.33,21.33l-118.5,39.05s13.5,2.28,23.16,41.95c9.67,39.67-32.33,69-32.33,69,0,0,23.67-41,2.33-73.33s-47.33-32.67-47.33-32.67Z"/>
  </g>
  <g>
    <polygon points="265.01 730.76 273.89 712.01 279.22 712.89 268.64 735.01 265.01 730.76"/>
    <polygon points="324.76 725.39 330.39 726.39 319.39 768.51 314.14 766.39 324.76 725.39"/>
    <polygon points="368.53 555.13 374.51 555.64 374.76 558.76 366.64 562.76 368.53 555.13"/>
    <polygon points="354.68 546.1 359.98 548.38 350.05 568.72 344.39 567.22 354.68 546.1"/>
    <polygon points="343.95 533.82 347.39 537.22 327.39 562.55 321.72 560.55 343.95 533.82"/>
    <polygon points="335.12 520.55 338.05 524.55 266.89 585.05 245.55 595.39 335.12 520.55"/>
    <polygon points="168.55 597.89 327.79 505.82 330.62 510.87 171.89 602.05 168.55 597.89"/>
    <polygon points="156.89 550.64 323.53 489.86 325.75 495.15 156.89 556.14 156.89 550.64"/>
    <polygon points="150.05 504.05 322.22 474.05 323.22 479.22 150.39 509.89 150.05 504.05"/>
    <polygon points="150.05 457.55 323.77 457.3 323.78 463.19 149.55 463.39 150.05 457.55"/>
    <polygon points="155.39 410.89 327.55 441.72 327.22 447.39 155.05 417.55 155.39 410.89"/>
    <polygon points="168.39 366.55 334.96 426.72 333.45 432.09 166.39 371.39 168.39 366.55"/>
    <polygon points="188.22 323.55 344.71 413.89 342.05 418.89 184.72 328.39 188.22 323.55"/>
    <polygon points="214.05 283.05 356.39 402.33 352.89 406.72 211.22 287.39 214.05 283.05"/>
    <polygon points="245.89 243.89 369.64 392.89 365.89 396.55 242.64 248.64 245.89 243.89"/>
    <polygon points="284.14 211.64 384.96 386.12 380.05 389.37 280.14 215.64 284.14 211.64"/>
    <polygon points="329.22 184.22 400.93 382.21 395.6 384.44 324.22 188.22 329.22 184.22"/>
    <polygon points="378.89 164.22 416.87 381.4 411.04 381.79 373.22 165.55 378.89 164.22"/>
    <polygon points="433.55 150.89 433.06 382.53 427.31 382.58 427.22 151.89 433.55 150.89"/>
    <polygon points="490.55 147.89 448.92 386.65 442.98 386.21 485.22 147.55 490.55 147.89"/>
    <polygon points="550.55 155.22 463.4 394.64 458.26 392.26 544.89 153.55 550.55 155.22"/>
    <polygon points="609.55 173.89 476.54 403.87 471.55 400.98 605.22 170.55 609.55 173.89"/>
    <polygon points="664.89 204.22 488.05 415.13 483.79 411.72 660.89 201.22 664.89 204.22"/>
    <polygon points="715.39 246.22 496.69 428.52 493.51 424.17 710.89 242.22 715.39 246.22"/>
    <polygon points="757.05 298.22 504.1 443.94 501.2 439.02 754.22 293.22 757.05 298.22"/>
    <polygon points="788.55 357.22 507.9 458.92 506.01 453.8 786.22 352.55 788.55 357.22"/>
    <polygon points="807.55 423.55 509.45 475.83 508.4 469.92 805.55 417.22 807.55 423.55"/>
    <polygon points="811.89 491.89 507.49 491.72 507.48 486.21 810.22 485.89 811.89 491.89"/>
    <polygon points="801.22 560.55 511.22 509.89 501.89 502.55 802.89 554.55 801.22 560.55"/>
    <polygon points="778.55 625.55 612.22 564.22 612.22 558.55 781.55 619.22 778.55 625.55"/>
    <polygon points="657.39 634.72 604.05 602.89 607.22 597.89 670.39 635.39 657.39 634.72"/>
  </g>
  <g>
    <polygon fill="#2c933a" points="672.3 420.29 683.3 420.63 696.95 429.45 711.05 434.55 719.45 439.2 724.76 441.26 731.01 445.32 739.72 447.39 749.05 456.05 755.05 461.55 758.64 465.82 759.05 478.72 759.95 483.07 769.55 482.72 777.69 488.53 778.55 500.55 785.89 513.05 789.55 518.22 796.5 523.78 794.98 533.96 787.05 542.39 777.31 550.34 768.55 560.22 758.89 568.89 750.7 572.78 737.95 574.51 727.76 582.2 722.32 587.51 710.2 591.51 707.82 593.45 703.45 597.89 698.89 605.26 694.2 612.07 686.64 604.39 679.22 595.55 672.07 592.76 664.26 583.88 665.01 559.57 661.72 537.89 657.01 523.89 651.76 511.2 647.64 505.14 642.39 492.95 648.7 483.95 657.55 477.05 662.14 468.26 669.64 461.07 674.76 458.39 679.8 456.9 676.51 450.26 673.2 444.51 669.26 436.57 668.16 430.88 669.32 425.82 672.3 420.29"/>
    <path fill="#2c933a" d="M591.97,353.22c1.88-1.75,9.71-4.38,9.71-4.38l6.96,2.79,8.13,4.79,4.37,3.83,5.12,4.62,6.92,4.29s3.67,2.67,4,3.58,1.54,3.25,1.25,8.58-4.46,8.29-4.46,8.29c0,0-5.21,4.25-6.75,4.83s-6.33.92-6.33.92l-6.43,3.97s-7.24-.85-8.36-.6-3.04,2.33-3.46,3.21-2.67,3.96-2.67,3.96c0,0-2.96,2.29-5.88,2.33s-6.08-1.5-6.08-1.5c0,0-4.46-2-4.75-3s-2.04-5.92-2.58-6.71c-2.75-3.75-1.21-2.67-3.5-5.04s-1.88-2.54-3.75-4-1.92-4.5-1.92-4.5l.04-2.92-7.77-7.4-2.27,1.88-7.01-1.9s-1.58-2.87-3.12-9.91c-.33-1.5-1.83-5.04-1.88-5.38,0-2.58,2.13-7.5,2.13-7.5,0,0,2.41-4.67,4.12-6.5s2.21-2.96,3.96-3.46,6.12-2.04,6.12-2.04c0,0,5.34,1.96,6.67,3.12s2.67,4.58,2.67,4.58l1.71,4.54,1.44,2.78,4.08,3.51s7.69-1.96,9.56-3.71Z"/>
    <path fill="#2c933a" d="M554.8,404.22l6.79-3.33s2.96-.83,4.5-.5c.46.08,1.04.58,1.04.58l1.24,5.93-4.3,6.96-3.44-.49-7.19,2.41-5.69-3.6s.33-3.71,1.62-5.04,5.42-2.92,5.42-2.92Z"/>
    <path fill="#2c933a" d="M527.28,359.61c.82.78,13.02,11.11,13.02,11.11l-.15,8.04-4.32,8.52s-10.35,2.02-11.21,2.23c-6.4-3.62-6.59-5.96-7.87-8.23-1.28-2.27-1.3-10.42-1.3-10.42,0,0-4.9-5.59-4.5-7.76.4-2.17,7.94-3.59,7.94-3.59,0,0,7.57-.68,8.39.1Z"/>
    <path fill="#2c933a" d="M544.24,328.06c.11,1.41-7.06,9.46-7.06,9.46l-3.25,4.4s-2.75,1.9-6.04,3.23-17.54.41-17.54.41c0,0-8.54-1.58-16.83-3.79-13.92.96-25.41.09-25.41.09l2.54-7.09s2.83-4.88,5-6.75c.54-.75-.43-5.69-.43-5.69l7.57,1.9,7.16-2.14-.59,2.02,14.61.08.92-3.98s4.13,2.06,6.76,3.19,5.85-.04,6.09-.02c.24.02,7.95,3.31,8.83,2.98s17.62.71,17.68,1.71Z"/>
    <path fill="#2c933a" d="M412.81,270.6s5.39,7.91,9.52,11.79,10.91,9.72,10.91,9.72l.21,10.03v5.69l2.81,1.56,5.94-.84,4.31,10.4,6.46,11.01,4.19,1.41,1.47,2.52-1,5.06-1.22,4.62-5.03.69s-4.75-1.38-8.38-1.38-10.12,1.45-10.12,1.45c0,0-5.32-3.14-7.26-5.58-1.94-2.44-9.01-3.27-9.01-3.27l2.99-5.24s-2.35-3.22-2.98-3.76c-4.75,3.4-8.06,1.32-9.31,1.05,1.06,2.66,2.31,9.35,2.31,9.35l-14.31,2.38s-.87-6.5-3.05-10.77c-1.02-2.05-5.95-5.86-7.27-7.73-1.31-1.88-9.63-14.33-9.63-14.33l-.17-5.94-6.94-6.61s7.56-4.81,13.88-5.12c6.31-.31,12.06-2.88,12.06-2.88,0,0,4.25-2.56,6.81-6,2.56-3.44,7.12-9.81,7.12-9.81l4.67.52Z"/>
    <path fill="#2c933a" d="M306.64,227.85s4.38.38,7.38,2.17c.58.5,5.25,2.88,5.25,2.88,0,0,3.83.79,4.62,1.46s2.75,7.04,2.75,7.04l2.25,5.88-.25,7.12s1.58,6.21,1.96,8.79-.29,4.38-1.42,6.17-7.25,6.79-7.25,6.79l-4.98,3.81s-6.1,8.5-6.31,9.01c-6.12.31-4.96-.86-13.46-2.82-4.42-.62-8-.83-12.71-3.08-4.71-2.25-9.71-11.79-9.71-11.79,0,0-7.12-7.17-7.25-9.5s.33-5.25,5.25-10.75c.75-.83,3.67-11.29,6.38-14.5,1-.88,3.33-3.67,8.96-4.08,1.21-.62,4.37.33,8.67-2.25s9.88-2.33,9.88-2.33Z"/>
    <path fill="#2c933a" d="M243.35,268.62s3.12,3.23,1.54,13.65c-.21,1.33-1,8.12-2.83,9.71s-4.17,3.71-9.29,4.92c-1.92.5-7.17,3.17-7.17,3.17l-3.12,2.29-5.2-4.3s.91-5.87,2.71-9.34c.49-.65,4.04-3.82,4.04-3.82l4.12-6.12,6.12-4.88,9.09-5.27Z"/>
  </g>
  <g>
    <path fill="#cead00" d="M583.79,119.51l.9-2.55c1.67-.26,3.27-.68,4.79-1.27,2.27-4.72,6.19-14.94,11.77-30.66,3.8-10.72,6.23-17.86,7.29-21.42.58-1.88.72-3.15.43-3.8-.29-.65-2.11-1.77-5.46-3.34l1.41-3.96c6.15,2.5,11.03,4.39,14.66,5.68l22.03,7.34c2.3.82,4.34,1.67,6.12,2.54l.09.62c-1.81,3.25-3.87,7.71-6.17,13.36l-3.14-1.11c1.5-4.64,2.21-7.15,2.15-7.52-.06-.38-.56-.89-1.49-1.54-2-1.35-5.26-2.82-9.79-4.43-2.23-.79-4.86-1.6-7.91-2.43-3.79,9.59-6.74,17.26-8.83,23,2.76,1.23,5.38,2.28,7.87,3.16,3.68,1.31,5.95,1.95,6.79,1.93.52-.03,1-.37,1.44-1.03.36-.51,1.25-2.43,2.67-5.75l3.42,1.21c-2.02,5.28-3.32,8.72-3.89,10.33l-3.58,10.71-3.42-1.21c1.28-4.21,1.89-6.68,1.83-7.42-.02-.44-.29-.83-.79-1.19-1.2-.82-4.12-2.05-8.76-3.69-1.46-.52-3.21-1.01-5.24-1.49-.64,1.64-1.27,3.33-1.88,5.05-3.18,8.96-5.49,15.9-6.94,20.82l7.83,2.94c4.49,1.59,8.69,2.76,12.61,3.52,1.69-2.67,3.5-5.75,5.42-9.23l3.3,1.17c-2.6,5.38-4.86,10.63-6.8,15.75-2.49-.64-4.85-1.35-7.07-2.14-1.46-.52-4.31-1.59-8.57-3.22-3.96-1.53-7.62-2.89-10.99-4.08-4.43-1.57-9.13-3.11-14.11-4.63Z"/>
    <path fill="#cead00" d="M636.86,139.1l1.22-2.3c2.34-.27,4.02-.51,5.06-.71,3.1-5,8.42-14.61,15.96-28.84,3.26-6.16,5.94-11.33,8.02-15.53,2.08-4.2,3.17-6.65,3.26-7.36.06-.35.01-.65-.13-.92-.25-.43-1.88-1.76-4.91-3.97l1.97-3.71c3.67,2.14,7.94,4.49,12.81,7.08l18.48,9.52c6.68,3.54,11.22,7.24,13.62,11.08,2.4,3.84,3.53,8.37,3.38,13.57-.15,5.21-1.79,10.76-4.92,16.66-4.02,7.58-9.07,13.26-15.16,17.06-6.09,3.8-12.03,5.65-17.84,5.56-5.8-.09-11.3-1.52-16.49-4.27l-13.96-7.8c-2.26-1.2-5.72-2.9-10.37-5.1ZM654.86,141.61c1.85,1.55,3.87,2.9,6.06,4.06,5.54,2.94,10.26,4.23,14.17,3.89,3.91-.34,7.89-2.18,11.97-5.51,4.07-3.33,7.77-8.12,11.08-14.36,4.36-8.22,5.89-15.43,4.59-21.62-1.12-5.5-5.26-10.15-12.42-13.94-1.54-.82-4.29-2.08-8.24-3.81l-14.91,27.39c-6.15,11.59-10.25,19.56-12.3,23.91Z"/>
    <path fill="#cead00" d="M732.74,118.72l2.68-3.24c4.27,3.84,8.06,7.14,11.4,9.9,2.12,1.76,5.19,4.15,9.22,7.19l-2.68,3.24c-1.99-1.65-3.57-2.61-4.73-2.88-.39-.1-.8-.07-1.22.09-.54.16-1.2.63-1.99,1.41-1.32,1.33-4.86,5.38-10.61,12.14-4,4.7-8.04,9.5-12.11,14.41-3.34,4.03-5.41,7.32-6.2,9.85-.79,2.53-.82,4.88-.09,7.05,1.08,3.1,2.89,5.71,5.45,7.83,3.48,2.89,6.71,4.42,9.68,4.58,2.97.16,5.76-.69,8.37-2.56,2.61-1.87,7.25-6.84,13.94-14.9l11.79-14.28c2.64-3.23,4.11-5.26,4.4-6.1.17-.47.17-.93-.01-1.38-.22-.79-1.57-2.38-4.04-4.78l2.68-3.24c2.64,2.49,5.14,4.72,7.5,6.67,2.03,1.69,4.61,3.67,7.72,5.95l-2.68,3.24c-2.14-1.78-3.71-2.6-4.71-2.48-1,.13-2.53,1.32-4.6,3.6-5.01,5.56-10.54,11.96-16.59,19.21-3.86,4.65-6.43,7.65-7.73,9-3.18,3.35-6.41,5.77-9.7,7.27-3.29,1.5-7.01,1.89-11.17,1.18s-8.32-2.8-12.5-6.27c-4.35-3.61-7.33-7.37-8.93-11.3-1.6-3.93-2.03-7.57-1.3-10.92.74-3.36,2.99-7.31,6.76-11.85l14.54-17.21c1.15-1.39,4.02-4.96,8.62-10.73,1.43-1.81,2.26-3.15,2.52-4.03.12-.5.09-1-.09-1.51-.19-.5-1.38-1.89-3.6-4.15Z"/>
    <path fill="#cead00" d="M786.39,246.24l-.11,1.56c-1.71.62-3.39,1.32-5.04,2.1-3.72-.97-6.93-2.26-9.62-3.87-2.7-1.61-5.4-3.84-8.1-6.7-5.06-5.35-8.23-10.93-9.5-16.73-1.27-5.81-.82-11.62,1.34-17.44,2.16-5.82,5.86-11.21,11.1-16.16,7.54-7.13,15.84-10.73,24.91-10.78,9.07-.05,17.36,3.88,24.86,11.81,2.49,2.63,4.68,5.5,6.57,8.62,1.89,3.11,3.47,6.48,4.75,10.11l-.34.73c-1.67.86-3.17,1.79-4.52,2.8-2.37,1.73-5.18,3.99-8.44,6.81l-2.43-2.57c3.71-3.75,5.7-5.86,5.96-6.34.26-.48.37-1.65.33-3.51-.04-1.86-.58-3.91-1.62-6.15-1.04-2.24-2.54-4.39-4.49-6.45-4.63-4.9-10.11-7.09-16.43-6.58-6.32.51-12.68,3.79-19.07,9.85-6.93,6.56-10.9,13.61-11.9,21.14-.94,6.97,1.24,13.25,6.53,18.84,2.05,2.16,4.23,3.94,6.55,5.32,2.32,1.38,5.23,2.59,8.73,3.61Z"/>
    <path fill="#cead00" d="M787.28,257.65c1.49,2.19,2.59,3.43,3.31,3.73.5.19,1.93.12,4.28-.23,4.61-.73,10.91-1.9,18.9-3.52l44.96-9.2,3.15,5.34-36.61,43.74c-4.59,5.58-7.01,8.78-7.28,9.61-.27.83.26,2.58,1.58,5.26l-3.92,2.32c-2.13-4.06-4.23-7.85-6.3-11.36-2.47-4.19-4.92-8.11-7.35-11.76l3.92-2.32c1.84,2.8,3.01,4.35,3.51,4.66.5.31,1.06.28,1.68-.09.53-.31,2.06-1.9,4.57-4.75l5.79-6.64c-1.69-3.06-3.63-6.44-5.82-10.15-1.9-3.22-3.68-6.13-5.32-8.72l-5.78,1.26c-1.58.34-3.86.97-6.84,1.88-.67.2-1.25.44-1.73.73-.65.38-.96.89-.95,1.51.01.63.74,2.49,2.19,5.58l-3.92,2.31c-1.2-2.49-2.84-5.5-4.92-9.03-1.98-3.36-3.66-5.98-5.03-7.84l3.92-2.31ZM843.17,256.79l-26.69,5.42c1.17,2.31,2.55,4.81,4.14,7.5,1.66,2.81,3.32,5.46,4.98,7.94l17.58-20.86Z"/>
    <path fill="#cead00" d="M819.14,324.73l3.88-1.63c.62,1.48,1.42,2.96,2.4,4.43.47.69.95,1.11,1.43,1.27.48.16,1.24.12,2.25-.12,1.4-.38,6.32-2.26,14.76-5.66,6-2.43,12.1-4.95,18.31-7.56,12.2-5.13,18.4-7.78,18.61-7.94.21-.16-.07-1.13-.81-2.89-1.52-3.61-2.95-6.66-4.29-9.16-.79-1.44-1.3-2.23-1.54-2.36-.24-.13-.57-.17-1-.11-.43.06-3.22.97-8.38,2.74l-1.41-3.34c5.92-2.43,10.94-4.69,15.06-6.79l.55.27c2.97,8.36,6.08,16.4,9.33,24.12,3.24,7.7,7.09,16.22,11.56,25.56l-.56.74c-4.44,1.28-9.53,3.02-15.3,5.2l-1.36-3.23c5.09-2.41,7.8-3.83,8.14-4.24.27-.33.32-.84.18-1.54-.47-2.24-2-6.45-4.59-12.62-.22-.52-.44-.79-.67-.82-.26-.01-1.1.28-2.51.87l-31.13,12.81c-8.99,3.78-14.48,6.17-16.47,7.16-1.99.99-3.1,1.82-3.32,2.5-.13.46.4,2.64,1.61,6.54l-3.88,1.63c-1.39-3.91-2.98-8-4.78-12.28-2.37-5.63-4.39-10.16-6.08-13.57Z"/>
    <path fill="#cead00" d="M836.55,369.96l4.07-1.05c1.19,3.68,2.1,5.69,2.74,6.05.64.35,2,.32,4.06-.09,4.32-.88,12.3-2.81,23.93-5.81,4.46-1.15,10.91-2.86,19.35-5.15,5.77-1.54,8.92-2.47,9.44-2.78.52-.31.86-.7,1.02-1.18.2-.69-.02-2.84-.68-6.44l4.07-1.05c1.22,5.67,2.21,9.98,2.97,12.95,1.32,5.12,2.62,9.72,3.91,13.8l-4.07,1.05c-1.22-3.66-2.1-5.67-2.66-6.04-.56-.37-1.65-.42-3.27-.14-3.16.58-9.47,2.09-18.94,4.52-12.6,3.24-21.38,5.54-26.31,6.9-4.94,1.36-7.83,2.36-8.66,3.01-.38.27-.62.7-.73,1.3-.11.59.13,2.54.7,5.85l-4.07,1.05-1.09-4.86c-.65-3.08-1.29-5.82-1.91-8.22l-3.88-13.68Z"/>
    <path fill="#cead00" d="M848.2,433.24c-.77-10.34,1.79-18.5,7.69-24.47,5.9-5.97,14.37-9.36,25.42-10.19,7.72-.58,14.38.27,19.99,2.53,5.61,2.26,10.03,5.64,13.28,10.15,3.25,4.51,5.15,10.48,5.7,17.91.53,7.15-.42,13.1-2.86,17.85-2.44,4.75-6.04,8.53-10.8,11.36-4.76,2.82-10.73,4.5-17.92,5.04-7.79.58-14.62-.26-20.49-2.53-5.88-2.27-10.55-5.73-14.03-10.39-3.48-4.66-5.47-10.41-5.98-17.25ZM853.71,434.44c.42,5.63,3.23,9.94,8.42,12.92,5.2,2.98,12.84,4.09,22.93,3.34,10.59-.79,18.57-3.32,23.95-7.58,4.33-3.45,6.25-8.42,5.77-14.89-.45-6.06-3.18-10.57-8.19-13.53s-12.46-4.08-22.35-3.34c-7.13.53-13.1,1.89-17.91,4.08-4.81,2.19-8.2,4.78-10.17,7.76-1.97,2.98-2.79,6.73-2.45,11.24Z"/>
    <path fill="#cead00" d="M853.06,471.71l4.19.29c-.07,3.43.05,5.46.38,6.07.24.41.65.74,1.24.97.78.36,3.58.75,8.4,1.16,7.98.71,14,1.2,18.06,1.49l21.13,1.39c5.59.39,8.83.46,9.72.22.51-.13.9-.37,1.15-.72.44-.53.97-2.62,1.59-6.28l4.19.29c-.47,4.37-.78,7.61-.93,9.72-.16,2.33-.26,4.99-.31,7.97-10.26,5.79-21.42,12.37-33.46,19.73-8.05,4.9-14.72,9.14-20,12.74l19.82,1.38c7.51.52,13.99.91,19.43,1.15,3.24.11,5.25.03,6-.26.41-.14.72-.43.92-.87.2-.44.57-2.38,1.11-5.84l4.19.29c-.38,3.04-.67,6.07-.89,9.09-.29,4.14-.47,7.9-.54,11.27l-4.19-.29c-.02-3.14-.15-5.04-.4-5.7-.14-.38-.35-.68-.64-.93-.28-.25-.66-.44-1.11-.58-.79-.25-3.34-.54-7.67-.88l-19.96-1.55-20.12-1.49c-5.39-.38-10.79-.66-16.2-.84l-.66-.6c.97-3.36,1.62-5.73,1.95-7.13,9.98-6.55,22.5-14.42,37.55-23.63,7.61-4.65,14-8.39,19.18-11.22l-19.41-1.36c-5.29-.37-11.66-.75-19.12-1.12-5.49-.3-8.67-.32-9.52-.07-.37.09-.67.28-.89.57-.4.51-.88,2.5-1.42,5.99l-4.19-.29c.55-4.51.89-7.74,1.03-9.69.11-1.62.24-5.11.38-10.46Z"/>
  </g>
  <g>
    <path fill="#cead00" d="M107,536.18l-2.61.16c-1.46-1.88-2.55-3.22-3.27-4.01-5.91-.03-16.94.46-33.09,1.46-6.99.44-12.83.87-17.52,1.29-4.69.42-7.36.78-8.01,1.08-.33.13-.57.34-.72.6-.24.45-.51,2.57-.81,6.37l-4.22.26c-.1-4.32-.33-9.28-.68-14.87l-1.57-21.09c-.48-7.68.29-13.58,2.32-17.7,2.03-4.12,5.31-7.5,9.85-10.13,4.54-2.63,10.15-4.16,16.85-4.58,8.6-.54,16.13.83,22.58,4.09,6.45,3.26,11.16,7.44,14.14,12.52,2.97,5.09,4.64,10.61,5.02,16.57l.66,16.25c.16,2.6.52,6.5,1.08,11.71ZM99.69,519.23c.35-2.43.45-4.9.29-7.41-.4-6.36-1.77-11.15-4.12-14.35-2.35-3.21-6.02-5.69-11.01-7.46-4.99-1.76-11.03-2.43-18.12-1.98-9.33.58-16.3,3.08-20.93,7.5-4.12,3.9-5.92,9.95-5.41,18.17.11,1.77.47,4.83,1.08,9.17l31.29-1.61c13.16-.82,22.14-1.5,26.94-2.03Z"/>
    <path fill="#cead00" d="M103.54,466.03l-2.69-.21c-.68-1.55-1.5-2.98-2.46-4.3-5.13-.97-15.99-2.12-32.58-3.44-11.31-.9-18.82-1.4-22.51-1.5-1.96-.07-3.22.12-3.78.56-.55.45-1.16,2.49-1.81,6.13l-4.18-.33c.82-6.58,1.39-11.78,1.69-15.62l1.39-23.16c.19-2.43.49-4.62.88-6.56l.58-.25c3.6.91,8.42,1.74,14.46,2.5l-.26,3.32c-4.85-.25-7.45-.29-7.8-.14-.35.16-.71.77-1.1,1.84-.78,2.28-1.36,5.81-1.75,10.6-.19,2.35-.29,5.11-.31,8.26,10.22,1.18,18.37,2.04,24.43,2.58.47-2.98.81-5.78,1.02-8.41.31-3.89.35-6.24.11-7.05-.16-.49-.61-.87-1.36-1.12-.58-.22-2.66-.58-6.22-1.09l.29-3.61c5.61.59,9.26.95,10.95,1.08l11.24.68-.29,3.61c-4.38-.15-6.92-.1-7.62.15-.41.14-.73.49-.94,1.07-.48,1.37-.91,4.51-1.3,9.41-.12,1.54-.15,3.36-.08,5.45,1.75.2,3.53.37,5.35.51,9.45.75,16.74,1.19,21.85,1.32l.81-8.32c.38-4.74.42-9.1.14-13.07-3.01-.94-6.44-1.89-10.29-2.85l.28-3.49c5.86,1.11,11.5,1.94,16.93,2.49.03,2.57-.05,5.03-.24,7.38-.12,1.54-.42,4.57-.9,9.1-.45,4.22-.82,8.11-1.1,11.66-.37,4.68-.65,9.61-.83,14.81Z"/>
    <path fill="#cead00" d="M114.43,367.78c.84-2.56,1.17-4.21.97-4.97-.15-.52-1.07-1.61-2.76-3.27-3.35-3.22-8.08-7.51-14.18-12.88l-34.38-30.1,2.34-5.85,56.77,1.82c7.19.17,11.19.09,12.01-.21.81-.3,1.89-1.82,3.23-4.55l4.2,1.68c-1.94,4.24-3.69,8.28-5.22,12.13-1.84,4.59-3.47,9-4.92,13.23l-4.2-1.68c1.11-3.22,1.64-5.13,1.58-5.72-.06-.59-.42-1.02-1.08-1.29-.57-.23-2.75-.45-6.53-.67l-8.76-.46c-1.41,3.26-2.93,6.92-4.55,10.99-1.41,3.54-2.65,6.77-3.72,9.71l4.48,3.82c1.22,1.04,3.09,2.47,5.61,4.27.57.41,1.11.72,1.62.92.69.28,1.28.21,1.78-.19s1.53-2.15,3.12-5.24l4.2,1.68c-1.25,2.52-2.66,5.71-4.21,9.58-1.47,3.69-2.54,6.66-3.19,8.92l-4.2-1.68ZM80.09,323.74l20.38,17.9c1.13-2.38,2.29-5.05,3.46-8,1.23-3.08,2.33-6.06,3.31-8.94l-27.15-.96Z"/>
    <path fill="#cead00" d="M145.92,304.08l-3.55-2.24c1.46-2.93,2.19-4.68,2.19-5.25,0-.37-.15-.73-.44-1.08-.53-.67-2.7-2.27-6.53-4.83-5.95-3.93-10.66-6.99-14.12-9.18-4.67-2.96-10.65-6.67-17.91-11.13-5.44-3.31-8.88-5.16-10.31-5.57-.43-.14-.83-.12-1.21.04-.52.2-1.8,1.54-3.84,4.01l-3.55-2.24c3.31-4.79,5.41-7.9,6.31-9.33l11-18.04c2.45-3.87,4.68-6.41,6.68-7.62,2-1.21,4.31-1.71,6.92-1.51,2.61.2,5.23,1.14,7.88,2.81,3.38,2.13,5.81,4.83,7.31,8.09,1.5,3.26,1.94,7.56,1.33,12.89l18.36.98,14.13.65c2.4-.05,3.94-.23,4.64-.56.7-.32,1.45-1.09,2.26-2.31l3.25,2.06-1.29,2.13c-3.76,6.07-6.13,10.01-7.12,11.81-5.22-.41-12.85-.91-22.88-1.5l-17.86-1.02c-.34-.52-.74-1.01-1.18-1.5.74-.86,1.25-1.52,1.54-1.97,1.4-2.21,1.71-5.05.95-8.53-.76-3.48-3.11-6.45-7.03-8.93-3.41-2.16-6.6-2.99-9.56-2.49-2.96.5-5.51,2.44-7.65,5.82-.68,1.07-1.5,2.59-2.46,4.55l12.32,8.12,15.62,10.3c3.58,2.26,8.23,5.04,13.96,8.33,4.32,2.47,6.79,3.77,7.42,3.9.46.09.92.02,1.38-.22.65-.28,1.92-1.73,3.81-4.34l3.55,2.24c-2.9,4.15-5.39,7.87-7.47,11.16-2.22,3.51-4.51,7.35-6.86,11.5Z"/>
    <path fill="#cead00" d="M185.83,246.02l-3.23-2.69c1.03-1.23,1.97-2.62,2.83-4.17.39-.73.55-1.35.47-1.86-.08-.5-.46-1.15-1.15-1.94-.98-1.07-4.91-4.57-11.81-10.51-4.91-4.21-9.96-8.47-15.13-12.78-10.17-8.48-15.37-12.77-15.6-12.87-.24-.11-.97.58-2.2,2.05-2.51,3.01-4.56,5.68-6.16,8.02-.92,1.36-1.38,2.18-1.39,2.45,0,.27.11.58.36.93.25.35,2.35,2.41,6.29,6.18l-2.32,2.79c-4.87-4.14-9.19-7.55-12.96-10.25v-.61c6.04-6.48,11.75-12.94,17.12-19.37,5.35-6.41,11.14-13.75,17.38-22.02l.91.16c3.18,3.35,7.06,7.08,11.65,11.19l-2.24,2.69c-4.48-3.41-6.99-5.17-7.51-5.27-.41-.09-.89.1-1.45.55-1.78,1.45-4.81,4.74-9.09,9.88-.36.43-.5.76-.42.97.11.24.75.85,1.93,1.83l25.69,21.75c7.49,6.25,12.13,10.02,13.93,11.34,1.8,1.31,3.04,1.91,3.75,1.8.47-.09,2.16-1.57,5.07-4.44l3.23,2.69c-2.83,3.03-5.73,6.33-8.71,9.9-3.91,4.69-7,8.57-9.25,11.64Z"/>
    <path fill="#cead00" d="M212.55,212.28l-2.64-3.28,1.83-1.73c1.5-1.38,2.24-2.51,2.2-3.38-.04-.87-1.29-2.9-3.76-6.1-5.01-6.54-10.53-13.54-16.55-21.02-3.2-3.97-6.85-8.48-10.97-13.51-2.5-3.04-4.15-4.79-4.96-5.25-.4-.23-.86-.31-1.38-.24-.52.07-2.25,1.11-5.2,3.09l-2.64-3.27c2.71-2.05,5.33-4.1,7.87-6.14,2.95-2.38,5.76-4.71,8.43-6.98,3.84,2.35,7.7,4.63,11.59,6.85,2.76,1.59,14.63,8.19,35.61,19.8-6.85-23.77-12.17-41.04-15.94-51.83,2.73-1.98,5.27-3.92,7.63-5.82,2.77-2.23,5.4-4.45,7.87-6.66l2.64,3.27c-2.7,2.52-4.08,4.12-4.14,4.81-.06.69.66,2.08,2.17,4.17,2.48,3.39,7.41,9.67,14.8,18.84,3.72,4.62,7.69,9.47,11.91,14.55,4.22,5.08,6.71,7.87,7.47,8.37.47.27.93.39,1.38.37.45-.02,2.18-1.01,5.19-2.96l2.64,3.28c-3.69,2.67-6.93,5.13-9.71,7.37-2.8,2.26-6.54,5.42-11.21,9.48l-2.64-3.28,1.88-1.64c1.47-1.31,2.22-2.34,2.26-3.08.04-.74-.63-2.07-1.99-3.99-1.37-1.92-4.79-6.28-10.27-13.08l-18.95-23.52c3.09,10.75,7.27,24.75,12.52,41.99,2.16,7.09,4,12.8,5.52,17.15l-2.16,1.74c-5.25-3.15-12-7.02-20.27-11.64l-33.7-18.56,4.27,5.3c11.79,14.64,19.97,24.69,24.54,30.13,1.87,2.18,3.23,3.36,4.08,3.52.86.17,2.76-.81,5.71-2.93l2.64,3.28c-2.38,1.61-4.68,3.32-6.91,5.11-3.32,2.68-6.21,5.15-8.66,7.43Z"/>
    <path fill="#cead00" d="M285,158.06l-1.27-2.39c.94-1.41,1.71-2.87,2.3-4.39-1.94-4.86-6.82-14.66-14.64-29.4-5.33-10.05-8.95-16.67-10.86-19.85-1-1.7-1.83-2.66-2.51-2.89-.68-.23-2.73.36-6.15,1.76l-1.97-3.71c6-2.84,10.69-5.16,14.09-6.97l20.3-11.28c2.16-1.14,4.16-2.07,6.01-2.79l.52.35c1.17,3.53,3.07,8.06,5.68,13.58l-2.94,1.56c-2.41-4.24-3.77-6.46-4.09-6.67-.32-.21-1.03-.19-2.14.06-2.34.56-5.64,1.97-9.88,4.22-2.09,1.11-4.47,2.5-7.14,4.18,4.51,9.28,8.17,16.63,10.98,22.05,2.77-1.2,5.32-2.42,7.65-3.66,3.45-1.83,5.45-3.06,6.01-3.7.33-.4.4-.99.21-1.76-.13-.61-.94-2.56-2.43-5.85l3.2-1.7c2.52,5.06,4.19,8.34,4.99,9.85l5.48,9.87-3.2,1.7c-2.23-3.79-3.64-5.91-4.23-6.36-.34-.28-.81-.35-1.41-.22-1.41.33-4.29,1.65-8.64,3.96-1.37.73-2.91,1.68-4.64,2.86.78,1.58,1.59,3.18,2.45,4.8,4.46,8.4,8.01,14.8,10.66,19.19l7.46-3.79c4.21-2.23,7.91-4.54,11.11-6.91-.83-3.05-1.87-6.46-3.14-10.23l3.09-1.64c2.21,5.55,4.55,10.77,7.02,15.66-2.15,1.41-4.27,2.66-6.35,3.77-1.37.72-4.09,2.1-8.17,4.13-3.81,1.89-7.28,3.67-10.44,5.34-4.15,2.2-8.46,4.62-12.95,7.27Z"/>
    <path fill="#cead00" d="M331.65,132.97l-1.28-4c3.21-1.2,5.05-2.07,5.5-2.6.29-.37.44-.88.45-1.51.05-.86-.63-3.6-2.03-8.23-2.3-7.67-4.07-13.45-5.31-17.33l-6.54-20.14c-1.71-5.34-2.84-8.37-3.4-9.11-.31-.43-.68-.69-1.1-.81-.65-.21-2.8.07-6.42.85l-1.28-4c4.24-1.18,7.36-2.09,9.37-2.74,2.23-.71,4.73-1.6,7.51-2.67,9.18,7.38,19.43,15.3,30.73,23.76,7.54,5.66,13.95,10.28,19.24,13.85l-6.06-18.92c-2.3-7.17-4.34-13.33-6.14-18.47-1.1-3.06-1.92-4.88-2.46-5.48-.28-.33-.67-.51-1.14-.53-.48-.02-2.43.36-5.84,1.13l-1.28-4c2.96-.77,5.89-1.62,8.77-2.55,3.95-1.27,7.51-2.49,10.66-3.68l1.28,4c-2.91,1.18-4.62,2.01-5.15,2.49-.3.27-.5.58-.62.94-.12.35-.16.77-.13,1.25.06.82.73,3.3,2.02,7.45l5.96,19.12,6.07,19.23c1.65,5.15,3.39,10.27,5.23,15.35l-.31.83c-3.48.34-5.93.62-7.34.83-9.78-6.84-21.74-15.55-35.87-26.11-7.14-5.34-12.99-9.9-17.53-13.66l5.94,18.53c1.62,5.05,3.63,11.11,6.04,18.18,1.76,5.21,2.91,8.17,3.46,8.87.22.31.51.52.86.62.62.19,2.65-.11,6.09-.9l1.28,4c-4.39,1.16-7.52,2.04-9.38,2.64-1.55.5-4.83,1.67-9.85,3.52Z"/>
    <path fill="#cead00" d="M407.24,111.39l-.69-4.15c1.58-.26,3.2-.7,4.87-1.31.78-.3,1.3-.66,1.57-1.1.27-.43.4-1.17.4-2.22-.04-1.45-.74-6.67-2.09-15.67-.98-6.39-2.01-12.91-3.12-19.56-2.17-13.06-3.3-19.71-3.41-19.94-.11-.24-1.11-.2-3,.12-3.86.64-7.16,1.32-9.9,2.05-1.59.43-2.47.75-2.65.95-.18.2-.29.51-.34.94-.04.43.2,3.36.73,8.78l-3.58.59c-.99-6.32-2.03-11.72-3.12-16.23l.39-.47c8.82-.96,17.36-2.12,25.62-3.49,8.24-1.37,17.42-3.14,27.54-5.33l.59.72c.22,4.61.73,9.97,1.51,16.08l-3.45.57c-1.17-5.51-1.92-8.47-2.25-8.9-.26-.33-.74-.51-1.46-.53-2.29-.06-6.74.45-13.34,1.55-.56.09-.87.25-.95.46-.07.25.02,1.13.27,2.65l5.26,33.25c1.6,9.62,2.65,15.52,3.15,17.68s1.06,3.44,1.66,3.81c.41.24,2.66.22,6.74-.05l.69,4.15c-4.12.45-8.47,1.05-13.06,1.81-6.03,1-10.9,1.93-14.61,2.78Z"/>
    <path fill="#cead00" d="M108.87,411.7l-4.06-1.06c.56-3.31.74-5.23.53-5.75-.11-.38-.38-.71-.82-1-.73-.48-4.02-1.55-9.85-3.21-5.83-1.66-11.5-3.21-17.01-4.66-10.28-2.69-17.65-4.53-22.11-5.51-4.46-.98-7-1.34-7.62-1.08-.62.26-1.27,1.35-1.94,3.27l-.86,2.31-4.06-1.06,1.4-4.56c.84-2.83,1.49-5.09,1.93-6.78.61-2.31,1.52-6.06,2.73-11.24.64-2.8,1.13-4.85,1.47-6.16,1.28-4.87,2.77-8.33,4.47-10.37,1.7-2.04,3.82-3.38,6.35-4.01,2.53-.63,5.45-.51,8.76.35,5.97,1.56,10.5,4.67,13.59,9.3,3.09,4.64,3.91,9.72,2.46,15.24-.19.71-.44,1.44-.78,2.19-.33.76-.73,1.55-1.19,2.39-1.27.16-2.52.36-3.74.59l-.95-1.25c.3-.56.57-1.08.79-1.56.22-.48.38-.93.49-1.33.72-2.75.19-5.29-1.59-7.62-1.78-2.33-4.69-4.02-8.71-5.08-4.48-1.17-8.06-1.15-10.74.07-2.68,1.22-4.48,3.58-5.39,7.07-.37,1.42-.57,3.15-.58,5.18,9.84,2.87,18.21,5.21,25.1,7.02,2.32.61,9.73,2.44,22.25,5.48,4.95,1.21,7.82,1.82,8.6,1.82.58,0,1.04-.15,1.36-.47.51-.51,1.44-2.73,2.79-6.69l4.06,1.06c-1.49,4.76-2.66,8.79-3.53,12.08-.39,1.47-1.58,6.48-3.58,15.03Z"/>
  </g>
  <g>
    <path fill="#cead00" d="M137.04,716.02l2.3,3.03c-3.88,2.99-6.09,4.84-6.61,5.54s-.9,2.04-1.14,3.99c-.24,1.96-.02,4.09.66,6.4.68,2.31,1.73,4.41,3.16,6.29,2.46,3.24,5.42,5.07,8.87,5.51,3.45.44,6.65-.47,9.6-2.71,2.71-2.06,4.31-4.29,4.78-6.68.45-2.41-.4-5.67-2.57-9.78-3.22-6.1-5.03-10.49-5.41-13.19-.38-2.7.06-5.39,1.35-8.09,1.28-2.7,3.4-5.17,6.36-7.42,4.96-3.77,10.32-5.45,16.07-5.04,5.75.42,11.17,3.96,16.24,10.63,1.99,2.61,3.53,5.1,4.62,7.47,1.09,2.37,1.9,4.97,2.42,7.79l-.69,1.07c-1.94.9-3.64,1.79-5.1,2.66-1.46.88-3.88,2.51-7.27,4.91l-2.25-2.96c3.97-3.2,6.11-5.1,6.44-5.71.54-1.1.61-2.9.22-5.41-.39-2.51-1.46-4.91-3.21-7.21-2.39-3.14-5.12-4.91-8.19-5.31s-5.99.45-8.76,2.56c-1.69,1.28-2.89,2.76-3.6,4.42-.71,1.66-.88,3.36-.5,5.08.38,1.73,1.78,4.98,4.21,9.76,2.24,4.31,3.56,7.38,3.95,9.22.66,3.01.38,5.89-.86,8.64-1.24,2.75-3.46,5.35-6.68,7.8-5.59,4.25-11.65,5.93-18.18,5.03s-12.25-4.57-17.15-11.02c-2.18-2.87-3.85-5.71-4.99-8.54-1.15-2.82-1.95-6.04-2.4-9.64,2.16-.99,4.04-1.99,5.65-2.99,2.22-1.4,5.11-3.43,8.66-6.1Z"/>
    <path fill="#cead00" d="M168.08,785.9l2.81-3.13c1.22,1.1,2.61,2.12,4.17,3.06.73.43,1.36.62,1.87.57.51-.05,1.18-.41,2-1.06,1.11-.93,4.75-4.75,10.94-11.43,4.38-4.76,8.82-9.65,13.32-14.67,8.84-9.86,13.31-14.91,13.43-15.15.11-.23-.56-1.01-2.03-2.32-2.99-2.68-5.65-4.88-7.98-6.61-1.36-.99-2.18-1.5-2.45-1.52-.27-.02-.59.09-.96.32-.36.23-2.5,2.25-6.41,6.05l-2.77-2.48c4.31-4.72,7.88-8.92,10.7-12.6l.62.02c6.43,6.43,12.84,12.52,19.24,18.25,6.38,5.71,13.68,11.92,21.92,18.63l-.18.92c-3.47,3.05-7.35,6.79-11.63,11.23l-2.67-2.4c3.56-4.37,5.4-6.81,5.53-7.34.1-.41-.08-.91-.52-1.49-1.43-1.87-4.69-5.09-9.8-9.67-.43-.39-.76-.54-.97-.47-.24.1-.88.72-1.9,1.86l-22.67,24.91c-6.51,7.27-10.45,11.78-11.83,13.53-1.38,1.75-2.01,2.99-1.92,3.7.08.47,1.54,2.25,4.38,5.34l-2.81,3.13c-3.01-3.01-6.28-6.1-9.83-9.28-4.67-4.18-8.53-7.49-11.59-9.91Z"/>
    <path fill="#cead00" d="M200.91,811.5c2.31,1.42,3.86,2.12,4.65,2.1.54-.02,1.83-.67,3.85-1.95,3.93-2.54,9.24-6.18,15.91-10.92l37.49-26.73,5.2,3.65-14.92,55.25c-1.83,7.01-2.68,10.95-2.57,11.83.11.87,1.35,2.28,3.72,4.22l-2.62,3.73c-3.71-2.89-7.27-5.54-10.69-7.94-4.08-2.87-8.03-5.5-11.84-7.89l2.62-3.73c2.9,1.84,4.65,2.8,5.24,2.88s1.1-.17,1.51-.76c.36-.51,1.08-2.59,2.17-6.25l2.47-8.49c-2.87-2.14-6.11-4.48-9.73-7.02-3.14-2.21-6.03-4.17-8.66-5.9l-4.79,3.51c-1.31.96-3.14,2.46-5.49,4.51-.54.46-.96.92-1.28,1.37-.43.61-.51,1.21-.22,1.79.28.58,1.75,2,4.42,4.27l-2.62,3.73c-2.18-1.81-4.99-3.93-8.43-6.35-3.28-2.3-5.95-4.04-8.01-5.2l2.62-3.73ZM252.06,788.05l-22.28,15.83c2.08,1.66,4.42,3.41,7.04,5.25,2.74,1.92,5.4,3.7,8,5.32l7.23-26.4Z"/>
    <path fill="#cead00" d="M264.27,859.51l1.96-3.72c1.45.76,3.05,1.42,4.79,1.95.82.24,1.47.27,1.95.09.48-.18,1.04-.68,1.68-1.52.84-1.18,3.45-5.76,7.81-13.76,3.09-5.69,6.2-11.52,9.33-17.48,6.16-11.72,9.27-17.71,9.32-17.97.05-.25-.79-.84-2.53-1.75-3.56-1.87-6.67-3.36-9.36-4.46-1.56-.63-2.48-.92-2.75-.88-.27.05-.55.23-.85.54-.3.32-1.88,2.8-4.74,7.44l-3.29-1.73c3.03-5.63,5.46-10.58,7.3-14.83l.61-.13c7.81,4.67,15.51,9,23.12,13,7.58,3.98,16.18,8.22,25.8,12.71l.05.93c-2.62,3.81-5.46,8.38-8.53,13.73l-3.18-1.67c2.39-5.1,3.58-7.92,3.57-8.46,0-.42-.3-.86-.87-1.32-1.84-1.46-5.79-3.79-11.87-6.98-.51-.27-.86-.34-1.06-.22-.21.15-.67.91-1.39,2.27l-15.9,29.7c-4.54,8.64-7.26,13.97-8.17,16.01-.91,2.04-1.22,3.39-.95,4.06.19.44,2.04,1.81,5.55,4.11l-1.96,3.72c-3.65-2.18-7.58-4.38-11.8-6.6-5.55-2.91-10.1-5.18-13.66-6.78Z"/>
    <path fill="#cead00" d="M320.37,886.35l.83-2.58c1.7-.3,3.32-.76,4.85-1.39,2.14-4.78,5.76-15.12,10.86-31.02,3.48-10.84,5.69-18.06,6.63-21.65.52-1.9.62-3.18.3-3.82-.32-.65-2.23-1.72-5.71-3.23l1.29-4.01c6.38,2.36,11.45,4.15,15.21,5.35l22.81,6.84c2.39.77,4.5,1.57,6.35,2.41l.12.62c-1.73,3.3-3.66,7.82-5.8,13.54l-3.25-1.04c1.35-4.69,1.99-7.21,1.91-7.59-.08-.38-.6-.88-1.58-1.51-2.1-1.3-5.49-2.71-10.18-4.21-2.31-.74-5.03-1.49-8.18-2.26-3.51,9.71-6.23,17.46-8.15,23.26,2.87,1.16,5.59,2.16,8.17,2.99,3.82,1.22,6.15,1.82,7.01,1.78.53-.04,1-.4,1.43-1.07.35-.52,1.18-2.46,2.51-5.82l3.54,1.14c-1.87,5.34-3.06,8.82-3.58,10.45l-3.24,10.82-3.54-1.14c1.15-4.25,1.68-6.74,1.58-7.48-.04-.44-.33-.83-.85-1.17-1.26-.79-4.29-1.96-9.1-3.5-1.51-.48-3.32-.94-5.42-1.37-.59,1.66-1.17,3.36-1.73,5.1-2.91,9.06-5.01,16.07-6.3,21.04l8.12,2.77c4.65,1.49,8.99,2.57,13.02,3.23,1.63-2.72,3.36-5.85,5.19-9.38l3.42,1.1c-2.45,5.46-4.56,10.78-6.34,15.95-2.57-.58-5.01-1.24-7.31-1.98-1.51-.48-4.47-1.5-8.88-3.03-4.11-1.44-7.91-2.72-11.39-3.84-4.58-1.47-9.45-2.91-14.6-4.32Z"/>
  </g>
  <g>
    <path fill="#cead00" d="M533.34,912.21l-.83-4.12c3.69-.94,5.74-1.65,6.16-2.13.42-.48.6-1.32.54-2.53-.08-1.86-.85-6.42-2.3-13.69l-5.43-26.85c-1.85-9.06-2.98-13.98-3.4-14.74-.24-.46-.56-.79-.95-.98-.65-.31-2.91-.22-6.77.29l-.83-4.12c5.71-.91,10.22-1.69,13.53-2.36,5.24-1.05,10-2.12,14.29-3.22l.83,4.12c-3.42.96-5.42,1.67-5.97,2.12-.33.27-.54.62-.63,1.05-.16.68.03,2.62.55,5.81.8,4.74,1.69,9.54,2.66,14.38l.82,4.08c2.97-.42,7.64-1.28,14.02-2.56,5.67-1.14,9.83-2.06,12.48-2.76-2.11-10.64-3.62-17.7-4.55-21.15-.49-1.84-1.01-2.93-1.58-3.26-.77-.49-3.05-.46-6.82.09l-.83-4.12c7.07-1.18,11.85-2.02,14.33-2.52,4.26-.85,8.74-1.87,13.44-3.05l.83,4.12c-3.57.99-5.61,1.72-6.13,2.2-.3.26-.5.61-.59,1.04-.12.74.23,3.44,1.05,8.11,1.23,7.18,2.29,12.97,3.18,17.39l4.72,22.24c1.07,5.03,1.78,7.9,2.12,8.62.35.71.78,1.18,1.3,1.4.51.22,2.68.1,6.5-.36l.83,4.12-4.73.79c-3.55.58-6.33,1.07-8.34,1.47-4.18.84-9.08,1.94-14.71,3.31l-.83-4.12c3.71-.95,5.77-1.73,6.18-2.34.41-.62.46-2.02.13-4.22-.55-3.76-2-11.73-4.36-23.91-3.16.63-6.67,1.34-10.54,2.11-6.07,1.22-11.38,2.35-15.92,3.4l.65,3.24c1.72,8.58,3.11,14.99,4.17,19.24.72,2.85,1.39,4.46,2.02,4.83.63.37,2.86.32,6.68-.14l.83,4.12-5.04.86c-3.2.5-6.04,1.01-8.53,1.51l-14.24,3.21Z"/>
    <path fill="#cead00" d="M607.16,892.22c2.45-1.16,3.89-2.08,4.3-2.75.28-.47.43-1.9.47-4.29.01-4.68-.14-11.11-.47-19.29l-1.96-46,5.9-2.37,38.17,42.64c4.88,5.35,7.72,8.22,8.51,8.6.79.38,2.65.11,5.57-.82l1.7,4.23c-4.45,1.53-8.61,3.08-12.49,4.63-4.63,1.86-8.98,3.73-13.07,5.62l-1.7-4.23c3.12-1.43,4.88-2.37,5.27-2.83.39-.46.45-1.02.19-1.68-.23-.57-1.58-2.32-4.05-5.22l-5.76-6.7c-3.36,1.24-7.09,2.68-11.19,4.33-3.56,1.43-6.79,2.78-9.67,4.04l.33,5.93c.09,1.62.35,3.97.79,7.06.1.7.25,1.31.45,1.82.28.7.74,1.08,1.38,1.16.64.08,2.63-.38,5.99-1.38l1.7,4.23c-2.71.83-6.01,2.04-9.92,3.6-3.72,1.49-6.63,2.78-8.73,3.88l-1.7-4.23ZM615.39,836.55l1.12,27.3c2.53-.83,5.27-1.85,8.24-3.04,3.11-1.25,6.05-2.51,8.82-3.81l-18.19-20.46Z"/>
    <path fill="#cead00" d="M638.03,813.85l-2.24-3.56c3.77-2.09,7.05-4.01,9.83-5.76,2.94-1.85,6.27-4.08,9.99-6.69l2.24,3.56c-2.26,1.58-3.52,2.69-3.8,3.34s-.16,1.38.35,2.2c.6.96,4.19,5.14,10.76,12.52l17.63,19.8-5.7-27.79c-2.22-10.85-3.94-18.82-5.14-23.89l2.93-1.84,41.35,35.42-11.01-29.81c-2.38-6.43-4.25-10.71-5.6-12.86-.57-.9-1.18-1.36-1.82-1.37-.65,0-2.31.77-5,2.34l-2.24-3.56c4.18-2.35,6.83-3.87,7.92-4.56,1.34-.84,3.65-2.43,6.92-4.76l2.24,3.56c-1.68,1.33-2.61,2.42-2.79,3.26-.19.85.11,2.43.89,4.74,1.15,3.58,4.75,13.68,10.81,30.29l10.39,28.01-6.26,3.93-40.08-34.56,5.94,28.24c1.87,8.83,3.71,16.93,5.5,24.32l-4.71,2.96c-2.72-3.06-11.21-12.51-25.48-28.35l-15.96-17.66c-1.59-1.76-2.73-2.71-3.4-2.86-.67-.15-2.16.32-4.45,1.4Z"/>
    <path fill="#cead00" d="M739.7,824.15c1.89-1.95,2.91-3.31,3.06-4.09.09-.54-.26-1.93-1.07-4.18-1.63-4.39-4.03-10.36-7.21-17.9l-17.98-42.39,4.69-4.29,50.71,26.53c6.45,3.3,10.11,4.99,10.99,5.07.88.08,2.52-.82,4.93-2.72l3.07,3.37c-3.63,3-6.98,5.9-10.07,8.72-3.68,3.36-7.1,6.64-10.26,9.85l-3.07-3.37c2.42-2.43,3.74-3.93,3.94-4.5.21-.56.07-1.11-.42-1.64-.42-.46-2.29-1.61-5.63-3.47l-7.75-4.25c-2.71,2.34-5.7,5-8.96,7.98-2.84,2.59-5.38,4.98-7.64,7.18l2.39,5.44c.65,1.48,1.72,3.59,3.22,6.34.33.62.69,1.14,1.06,1.55.51.55,1.07.76,1.7.61.62-.15,2.33-1.28,5.13-3.39l3.07,3.37c-2.24,1.73-4.92,4.02-8.02,6.85-2.96,2.7-5.23,4.93-6.81,6.7l-3.07-3.37ZM727.88,769.14l10.63,25.17c2.07-1.67,4.29-3.58,6.65-5.74,2.47-2.26,4.78-4.48,6.92-6.66l-24.21-12.77Z"/>
    <path fill="#cead00" d="M793.96,779.21l-3.15-2.79c2.45-3.12,3.64-5.04,3.58-5.79s-.84-1.85-2.33-3.33c-3.15-3.09-9.22-8.62-18.22-16.59-3.45-3.05-8.49-7.44-15.12-13.15-4.51-3.92-7.05-6-7.6-6.26-.55-.26-1.07-.31-1.56-.17-.7.23-2.38,1.66-5.07,4.29l-3.15-2.79c4.11-4.29,7.21-7.62,9.29-9.97,3.59-4.06,6.75-7.81,9.48-11.24l3.15,2.79c-2.41,3.13-3.62,5.03-3.62,5.71,0,.68.57,1.62,1.7,2.81,2.25,2.3,7.04,6.69,14.36,13.17,9.75,8.63,16.57,14.61,20.47,17.94s6.35,5.16,7.36,5.47c.44.16.94.11,1.5-.14.56-.26,2.08-1.58,4.55-3.97l3.15,2.79-3.5,3.72c-2.24,2.33-4.2,4.44-5.88,6.34l-9.4,11.15Z"/>
    <path fill="#cead00" d="M822.53,745.89l-3.44-2.42c2.09-3.37,3.06-5.42,2.92-6.15-.14-.73-1.04-1.75-2.69-3.05-3.47-2.73-10.12-7.55-19.95-14.47-3.77-2.65-9.26-6.45-16.48-11.39-4.92-3.39-7.67-5.19-8.25-5.38-.58-.2-1.1-.19-1.57,0-.67.31-2.19,1.92-4.56,4.83l-3.44-2.42c3.61-4.72,6.32-8.37,8.13-10.94,3.12-4.43,5.85-8.51,8.18-12.22l3.44,2.42c-2.05,3.38-3.04,5.4-2.96,6.08.08.67.74,1.54,2,2.6,2.49,2.03,7.73,5.87,15.73,11.5,10.65,7.5,18.09,12.68,22.33,15.56,4.24,2.88,6.88,4.42,7.92,4.62.46.11.95,0,1.47-.31.53-.32,1.89-1.8,4.08-4.45l3.44,2.42-3.06,4.09c-1.97,2.56-3.68,4.88-5.14,6.96l-8.1,12.12Z"/>
  </g>
  <g>
    <path fill="#cead00" d="M498.87,106.95c-7.75-.32-13.59-2.94-17.52-7.88-3.92-4.93-5.72-11.58-5.38-19.92.24-5.83,1.44-10.75,3.6-14.76,2.16-4,5.06-7.03,8.69-9.07,3.63-2.04,8.23-2.95,13.8-2.72,5.36.22,9.7,1.45,13.02,3.69,3.32,2.24,5.82,5.26,7.51,9.07s2.42,8.43,2.2,13.86c-.24,5.88-1.46,10.93-3.65,15.14-2.19,4.21-5.17,7.41-8.93,9.61-3.76,2.2-8.21,3.2-13.33,2.99ZM500.24,102.93c4.22.17,7.67-1.56,10.33-5.19,2.66-3.64,4.15-9.27,4.46-16.89.33-8-.86-14.2-3.57-18.6-2.19-3.54-5.72-5.41-10.57-5.61-4.54-.19-8.13,1.47-10.76,4.97-2.64,3.5-4.11,8.98-4.41,16.46-.22,5.39.28,9.98,1.49,13.77,1.21,3.79,2.84,6.56,4.89,8.29,2.04,1.73,4.76,2.67,8.14,2.81Z"/>
    <path fill="#cead00" d="M525.79,108.8l.45-3.14c2.65.36,4.22.34,4.72-.04.38-.25.7-1.11.98-2.57.95-4.83,1.89-10.42,2.81-16.77.68-4.71,1.36-9.77,2.04-15.19.68-5.41.95-8.55.82-9.41-.07-.39-.21-.68-.42-.86-.31-.33-1.74-.76-4.27-1.31l.45-3.14c3.62.65,6.75,1.17,9.37,1.55,3.83.55,7.85,1.1,12.07,1.64,2.78.35,5.11.65,7.01.93,1.35.2,2.63.43,3.85.71l.2.82c-.89,3.05-1.69,6.68-2.4,10.88l-2.62-.38.33-4.03c.12-1.28.09-2.08-.08-2.4-.18-.32-.91-.72-2.18-1.21-1.28-.49-3.15-.91-5.6-1.27-1.81-.26-3.74-.43-5.79-.5-.84,4.19-1.38,7.15-1.64,8.9l-1.1,8.06-.28,1.72c1.24.26,2.74.51,4.51.77,3.19.46,5.11.65,5.78.57.35-.05.62-.22.8-.5.3-.49.72-2.03,1.24-4.62l2.69.39c-.38,2.19-.73,4.37-1.04,6.54-.3,2.05-.74,5.31-1.32,9.79l-2.69-.39c.3-3.26.38-5.18.23-5.77-.08-.32-.31-.57-.69-.75-.95-.47-2.96-.92-6.02-1.37l-4.11-.48-1.95,14.34c-.42,3.47-.56,5.49-.43,6.07.1.37.28.66.54.88.38.31,2.09.79,5.12,1.43l-.45,3.14c-3.31-.66-6.42-1.2-9.33-1.62-2.58-.37-6.44-.84-11.59-1.41Z"/>
  </g>
  <g>
    <path fill="#cead00" d="M427.03,913.06c-7.72-.62-13.44-3.48-17.15-8.56-3.72-5.09-5.24-11.8-4.57-20.13.47-5.82,1.86-10.69,4.18-14.61s5.32-6.83,9.03-8.73c3.7-1.9,8.32-2.63,13.87-2.18,5.33.43,9.61,1.83,12.83,4.2,3.22,2.37,5.59,5.49,7.13,9.37,1.53,3.87,2.08,8.52,1.64,13.94-.47,5.87-1.89,10.87-4.24,14.99-2.35,4.12-5.45,7.2-9.29,9.26-3.84,2.05-8.31,2.88-13.42,2.46ZM428.55,909.09c4.2.34,7.71-1.26,10.51-4.79,2.8-3.53,4.51-9.1,5.12-16.71.64-7.99-.3-14.23-2.82-18.74-2.04-3.63-5.48-5.64-10.31-6.03-4.52-.36-8.16,1.15-10.93,4.54-2.77,3.39-4.45,8.82-5.05,16.28-.43,5.38-.12,9.99.94,13.83,1.06,3.84,2.57,6.67,4.54,8.48,1.97,1.81,4.64,2.86,8.01,3.13Z"/>
    <path fill="#cead00" d="M463.74,914.48l.03-3.17c2.67,0,4.23-.22,4.68-.67.34-.3.55-1.19.63-2.68.3-4.91.48-10.58.54-17,.05-4.76.04-9.87,0-15.32-.05-5.45-.2-8.6-.44-9.43-.12-.38-.3-.64-.53-.8-.35-.28-1.82-.52-4.41-.72l.03-3.17c3.68.16,6.84.26,9.49.28,3.87.04,7.93.04,12.18.01,2.8-.03,5.15-.03,7.07-.01,1.37.01,2.67.08,3.91.19l.31.78c-.47,3.14-.78,6.84-.93,11.11l-2.65-.03-.21-4.04c-.05-1.28-.18-2.07-.4-2.36s-.99-.6-2.33-.91c-1.33-.32-3.24-.48-5.72-.51-1.83-.02-3.77.08-5.81.28-.27,4.26-.42,7.27-.44,9.04l-.02,8.13-.05,1.74c1.26.09,2.79.14,4.57.16,3.22.03,5.15-.04,5.81-.21.34-.1.58-.3.73-.6.24-.53.44-2.11.61-4.74l2.71.03c-.08,2.22-.14,4.43-.16,6.62-.02,2.07-.02,5.36,0,9.88l-2.71-.03c-.14-3.27-.32-5.19-.54-5.74-.12-.3-.38-.52-.78-.65-1.01-.34-3.06-.52-6.15-.55l-4.13.07-.02,14.47c.05,3.49.18,5.52.38,6.07.14.35.36.62.65.8.42.26,2.17.5,5.26.73l-.03,3.17c-3.36-.21-6.52-.33-9.46-.36-2.61-.03-6.5.02-11.67.15Z"/>
  </g>
</svg>